<?xml version="1.0" encoding="UTF-8" standalone="no"?>
<!-- Created with Inkscape (http://www.inkscape.org/) -->

<svg
   width="204.30106"
   height="209.6774"
   viewBox="0 0 54.054655 55.477145"
   version="1.1"
   id="svg1"
   inkscape:version="1.3 (0e150ed6c4, 2023-07-21)"
   sodipodi:docname="render.svg"
   xml:space="preserve"
   xmlns:inkscape="http://www.inkscape.org/namespaces/inkscape"
   xmlns:sodipodi="http://sodipodi.sourceforge.net/DTD/sodipodi-0.dtd"
   xmlns="http://www.w3.org/2000/svg"
   xmlns:svg="http://www.w3.org/2000/svg"><sodipodi:namedview
     id="namedview1"
     pagecolor="#d5d5d5"
     bordercolor="#000000"
     borderopacity="0.25"
     inkscape:showpageshadow="2"
     inkscape:pageopacity="0.0"
     inkscape:pagecheckerboard="0"
     inkscape:deskcolor="#d1d1d1"
     inkscape:document-units="mm"
     inkscape:zoom="0.93"
     inkscape:cx="-15.053763"
     inkscape:cy="83.333333"
     inkscape:window-width="2560"
     inkscape:window-height="1369"
     inkscape:window-x="1358"
     inkscape:window-y="-8"
     inkscape:window-maximized="1"
     inkscape:current-layer="svg1"
     inkscape:export-bgcolor="#d5d5d5ff" /><defs
     id="defs1" /><rect
     style="fill:#000000;fill-rule:evenodd;stroke-width:0.264583"
     id="rect2"
     width="54.054653"
     height="55.477146"
     x="-2.8421709e-14"
     y="-1.4210855e-14"
     ry="9.1039429" /><path
     style="fill:#ffffff"
     d="m 10.623147,34.775943 0.0695,-9.43639 4.36575,0.0562 4.36574,0.0563 1.31704,-0.29515 c 2.58909,-0.58023 3.64254,-1.9564 4.05903,-5.3025 0.29019,-2.33138 1.02885,-4.02564 2.46778,-5.66035 l 1.04731,-1.18981 1.76645,-0.86962 1.76644,-0.86961 2.25453,0.008 2.25452,0.008 1.61671,0.73905 1.6167,0.73906 1.21447,1.23721 c 0.66795,0.68047 1.54778,1.95159 1.95517,2.82472 l 0.7407,1.5875 -4.2e-4,2.25536 -4.1e-4,2.25537 -0.8692,1.7656 -0.86921,1.76561 -1.24705,1.10887 c -1.63805,1.45654 -3.16945,2.11575 -5.5301,2.38049 -2.36369,0.26507 -3.59526,0.82096 -4.52928,2.04433 l -0.71267,0.93346 -0.13229,5.57775 -0.13229,5.57774 -9.4622,0.0695 -9.4622,0.0695 z"
     id="path2" /></svg>
